<svg width="132.768" height="33.48" viewBox="0 0 132.768 33.48" xmlns="http://www.w3.org/2000/svg"><g id="svgGroup" stroke-linecap="round" fill-rule="evenodd" font-size="9pt" stroke="#000" stroke-width="0.25mm" style="stroke:#000;stroke-width:0.25mm; fill=green"><path d="M 68.76 22.344 L 68.832 21.888 A 10.399 10.399 0 0 1 66.635 22.544 A 8.728 8.728 0 0 1 65.112 22.68 A 11.754 11.754 0 0 1 62.66 22.435 A 9.159 9.159 0 0 1 60.384 21.636 Q 58.344 20.592 57.216 18.672 A 8.154 8.154 0 0 1 56.177 15.59 A 10.402 10.402 0 0 1 56.088 14.208 Q 56.088 10.656 57.432 7.932 A 10.827 10.827 0 0 1 59.418 5.098 A 9.711 9.711 0 0 1 61.14 3.708 Q 63.504 2.208 66.432 2.208 A 9.649 9.649 0 0 1 67.976 2.323 Q 69.657 2.596 70.644 3.516 A 4.344 4.344 0 0 1 72.01 6.298 A 6.053 6.053 0 0 1 72.048 6.984 A 6.326 6.326 0 0 1 71.987 7.891 Q 71.871 8.693 71.532 9.252 A 1.906 1.906 0 0 1 71.104 9.754 Q 70.671 10.104 70.056 10.104 A 2.197 2.197 0 0 1 69.623 10.064 Q 69.355 10.01 69.146 9.884 A 1.279 1.279 0 0 1 69.012 9.792 Q 68.616 9.48 68.616 8.928 Q 68.616 8.692 68.709 8.131 A 17.1 17.1 0 0 1 68.712 8.112 A 9.518 9.518 0 0 0 68.785 7.738 Q 68.856 7.326 68.856 7.056 A 2.661 2.661 0 0 0 68.784 6.417 A 1.784 1.784 0 0 0 68.244 5.496 A 1.757 1.757 0 0 0 67.697 5.171 Q 67.183 4.971 66.405 4.947 A 7.036 7.036 0 0 0 66.192 4.944 Q 64.44 4.944 62.94 5.952 A 6.205 6.205 0 0 0 61.366 7.5 A 8.59 8.59 0 0 0 60.528 8.964 Q 59.616 10.968 59.616 13.776 A 8.495 8.495 0 0 0 59.785 15.525 Q 60.021 16.644 60.584 17.491 A 4.806 4.806 0 0 0 61.188 18.228 Q 62.585 19.625 65.091 19.781 A 10.418 10.418 0 0 0 65.736 19.8 A 8.243 8.243 0 0 0 67.859 19.51 A 10.675 10.675 0 0 0 69.192 19.056 L 69.528 16.128 L 67.08 16.128 Q 66.604 16.128 66.285 15.966 A 1.092 1.092 0 0 1 66.048 15.804 A 0.964 0.964 0 0 1 65.796 15.424 Q 65.735 15.266 65.709 15.068 A 2.508 2.508 0 0 1 65.688 14.736 Q 65.688 14.174 65.94 13.814 A 1.196 1.196 0 0 1 66.048 13.68 A 1.196 1.196 0 0 1 66.789 13.31 A 1.681 1.681 0 0 1 67.008 13.296 L 71.496 13.296 A 1.314 1.314 0 0 1 71.945 13.37 A 1.151 1.151 0 0 1 72.372 13.644 A 0.959 0.959 0 0 1 72.632 14.138 Q 72.674 14.336 72.654 14.578 A 2.129 2.129 0 0 1 72.648 14.64 A 14.656 14.656 0 0 1 72.609 14.996 Q 72.504 15.882 72.193 17.957 A 337.381 337.381 0 0 1 72.168 18.12 L 71.904 19.944 A 93.86 93.86 0 0 1 73.63 18.678 Q 74.567 18.009 75.408 17.448 A 1.73 1.73 0 0 1 75.596 17.347 Q 75.696 17.301 75.787 17.279 A 0.718 0.718 0 0 1 75.96 17.256 A 0.525 0.525 0 0 1 76.377 17.45 A 0.786 0.786 0 0 1 76.452 17.556 Q 76.614 17.826 76.63 18.221 A 2.193 2.193 0 0 1 76.632 18.312 Q 76.632 18.864 76.464 19.176 A 1.381 1.381 0 0 1 76.206 19.513 A 1.902 1.902 0 0 1 75.936 19.728 Q 74.573 20.629 71.653 22.642 A 812.734 812.734 0 0 0 71.424 22.8 A 45.366 45.366 0 0 1 70.785 25.699 Q 70.023 28.661 69 30.624 A 7.909 7.909 0 0 1 68.18 31.907 Q 66.924 33.48 65.232 33.48 A 3.231 3.231 0 0 1 64.313 33.355 A 2.528 2.528 0 0 1 63.24 32.724 A 2.538 2.538 0 0 1 62.499 31.187 A 3.519 3.519 0 0 1 62.472 30.744 Q 62.472 29.616 62.976 28.464 Q 63.475 27.324 64.832 25.831 A 20.551 20.551 0 0 1 64.86 25.8 A 19.802 19.802 0 0 1 65.944 24.71 Q 66.525 24.165 67.229 23.573 A 47.462 47.462 0 0 1 68.76 22.344 Z M 20.732 22.609 A 13.693 13.693 0 0 0 22.776 22.752 Q 26.376 22.752 28.524 21.228 A 4.852 4.852 0 0 0 30.371 18.81 A 5.934 5.934 0 0 0 30.672 16.872 A 5.144 5.144 0 0 0 30.607 16.038 A 3.812 3.812 0 0 0 29.892 14.328 Q 29.112 13.296 28.008 12.696 A 18.889 18.889 0 0 0 27.206 12.287 Q 26.766 12.074 26.249 11.847 A 46.041 46.041 0 0 0 25.08 11.352 A 54.247 54.247 0 0 1 24.794 11.238 Q 23.939 10.893 23.319 10.606 A 15.492 15.492 0 0 1 22.728 10.32 A 5.356 5.356 0 0 1 22.398 10.136 A 4.52 4.52 0 0 1 21.324 9.24 A 2.246 2.246 0 0 1 20.917 8.569 A 2.453 2.453 0 0 1 20.76 7.68 A 3.283 3.283 0 0 1 20.765 7.504 Q 20.832 6.263 21.852 5.556 A 3.631 3.631 0 0 1 22.792 5.101 Q 23.265 4.945 23.841 4.87 A 9.06 9.06 0 0 1 25.008 4.8 A 7.721 7.721 0 0 1 25.303 4.806 Q 25.871 4.827 26.362 4.934 A 4.186 4.186 0 0 1 27.456 5.328 A 2.339 2.339 0 0 1 27.846 5.587 A 1.583 1.583 0 0 1 28.44 6.864 A 1.156 1.156 0 0 1 28.44 6.876 Q 28.438 7.039 28.393 7.525 A 44.174 44.174 0 0 1 28.368 7.776 A 4.008 4.008 0 0 0 28.319 8.126 A 5.057 5.057 0 0 0 28.296 8.616 A 1.155 1.155 0 0 0 28.433 9.171 A 1.351 1.351 0 0 0 28.716 9.528 A 1.417 1.417 0 0 0 29.237 9.833 A 1.674 1.674 0 0 0 29.76 9.912 A 1.944 1.944 0 0 0 29.895 9.907 Q 30.683 9.853 31.104 9.144 A 2.183 2.183 0 0 0 31.173 9.02 Q 31.442 8.491 31.524 7.656 A 8.106 8.106 0 0 0 31.56 6.864 A 4.969 4.969 0 0 0 31.532 6.328 A 3.782 3.782 0 0 0 30.684 4.272 A 4.785 4.785 0 0 0 29.698 3.376 A 5.792 5.792 0 0 0 28.344 2.7 A 8.688 8.688 0 0 0 27.107 2.366 A 10.388 10.388 0 0 0 25.128 2.184 Q 22.776 2.184 21.036 2.928 A 7.276 7.276 0 0 0 20.028 3.452 A 5.567 5.567 0 0 0 18.372 5.016 A 5.18 5.18 0 0 0 17.827 6.032 A 5.493 5.493 0 0 0 17.448 8.088 Q 17.448 9.744 18.276 10.86 Q 19.104 11.976 20.268 12.624 Q 21.014 13.039 22.04 13.484 A 36.026 36.026 0 0 0 23.28 13.992 A 61.407 61.407 0 0 1 23.553 14.102 Q 24.797 14.606 25.512 14.964 A 5.071 5.071 0 0 1 25.914 15.188 A 4.183 4.183 0 0 1 26.832 15.948 Q 27.36 16.536 27.36 17.352 Q 27.36 18.177 26.91 18.772 A 2.644 2.644 0 0 1 26.208 19.404 A 3.999 3.999 0 0 1 25.311 19.821 Q 24.81 19.986 24.204 20.065 A 9.253 9.253 0 0 1 23.016 20.136 A 14.463 14.463 0 0 1 22.936 20.136 Q 21.026 20.125 19.956 19.608 Q 19.38 19.33 19.108 18.898 A 1.648 1.648 0 0 1 18.864 18 A 3.771 3.771 0 0 1 18.866 17.898 A 3.313 3.313 0 0 1 18.9 17.496 A 8.161 8.161 0 0 0 18.903 17.48 Q 18.928 17.311 18.934 17.217 A 0.853 0.853 0 0 0 18.936 17.16 Q 18.977 16.958 18.994 16.717 A 5.414 5.414 0 0 0 19.008 16.32 Q 19.008 15.792 18.6 15.456 A 1.426 1.426 0 0 0 18.005 15.169 A 2.044 2.044 0 0 0 17.544 15.12 A 2.01 2.01 0 0 0 17.252 15.141 A 1.46 1.46 0 0 0 16.2 15.816 Q 15.744 16.512 15.744 17.832 Q 15.744 20.328 17.664 21.54 A 6.626 6.626 0 0 0 18.778 22.1 Q 19.659 22.446 20.732 22.609 Z M 37.364 22.609 A 13.693 13.693 0 0 0 39.408 22.752 Q 43.008 22.752 45.156 21.228 A 4.852 4.852 0 0 0 47.003 18.81 A 5.934 5.934 0 0 0 47.304 16.872 A 5.144 5.144 0 0 0 47.239 16.038 A 3.812 3.812 0 0 0 46.524 14.328 Q 45.744 13.296 44.64 12.696 A 18.889 18.889 0 0 0 43.838 12.287 Q 43.398 12.074 42.881 11.847 A 46.041 46.041 0 0 0 41.712 11.352 A 54.247 54.247 0 0 1 41.426 11.238 Q 40.571 10.893 39.951 10.606 A 15.492 15.492 0 0 1 39.36 10.32 A 5.356 5.356 0 0 1 39.03 10.136 A 4.52 4.52 0 0 1 37.956 9.24 A 2.246 2.246 0 0 1 37.549 8.569 A 2.453 2.453 0 0 1 37.392 7.68 A 3.283 3.283 0 0 1 37.397 7.504 Q 37.464 6.263 38.484 5.556 A 3.631 3.631 0 0 1 39.424 5.101 Q 39.897 4.945 40.473 4.87 A 9.06 9.06 0 0 1 41.64 4.8 A 7.721 7.721 0 0 1 41.935 4.806 Q 42.503 4.827 42.994 4.934 A 4.186 4.186 0 0 1 44.088 5.328 A 2.339 2.339 0 0 1 44.478 5.587 A 1.583 1.583 0 0 1 45.072 6.864 A 1.156 1.156 0 0 1 45.072 6.876 Q 45.07 7.039 45.025 7.525 A 44.174 44.174 0 0 1 45 7.776 A 4.008 4.008 0 0 0 44.951 8.126 A 5.057 5.057 0 0 0 44.928 8.616 A 1.155 1.155 0 0 0 45.065 9.171 A 1.351 1.351 0 0 0 45.348 9.528 A 1.417 1.417 0 0 0 45.869 9.833 A 1.674 1.674 0 0 0 46.392 9.912 A 1.944 1.944 0 0 0 46.527 9.907 Q 47.315 9.853 47.736 9.144 A 2.183 2.183 0 0 0 47.805 9.02 Q 48.074 8.491 48.156 7.656 A 8.106 8.106 0 0 0 48.192 6.864 A 4.969 4.969 0 0 0 48.164 6.328 A 3.782 3.782 0 0 0 47.316 4.272 A 4.785 4.785 0 0 0 46.33 3.376 A 5.792 5.792 0 0 0 44.976 2.7 A 8.688 8.688 0 0 0 43.739 2.366 A 10.388 10.388 0 0 0 41.76 2.184 Q 39.408 2.184 37.668 2.928 A 7.276 7.276 0 0 0 36.66 3.452 A 5.567 5.567 0 0 0 35.004 5.016 A 5.18 5.18 0 0 0 34.459 6.032 A 5.493 5.493 0 0 0 34.08 8.088 Q 34.08 9.744 34.908 10.86 Q 35.736 11.976 36.9 12.624 Q 37.646 13.039 38.672 13.484 A 36.026 36.026 0 0 0 39.912 13.992 A 61.407 61.407 0 0 1 40.185 14.102 Q 41.429 14.606 42.144 14.964 A 5.071 5.071 0 0 1 42.546 15.188 A 4.183 4.183 0 0 1 43.464 15.948 Q 43.992 16.536 43.992 17.352 Q 43.992 18.177 43.542 18.772 A 2.644 2.644 0 0 1 42.84 19.404 A 3.999 3.999 0 0 1 41.943 19.821 Q 41.442 19.986 40.836 20.065 A 9.253 9.253 0 0 1 39.648 20.136 A 14.463 14.463 0 0 1 39.568 20.136 Q 37.658 20.125 36.588 19.608 Q 36.012 19.33 35.74 18.898 A 1.648 1.648 0 0 1 35.496 18 A 3.771 3.771 0 0 1 35.498 17.898 A 3.313 3.313 0 0 1 35.532 17.496 A 8.161 8.161 0 0 0 35.535 17.48 Q 35.56 17.311 35.566 17.217 A 0.853 0.853 0 0 0 35.568 17.16 Q 35.609 16.958 35.626 16.717 A 5.414 5.414 0 0 0 35.64 16.32 Q 35.64 15.792 35.232 15.456 A 1.426 1.426 0 0 0 34.637 15.169 A 2.044 2.044 0 0 0 34.176 15.12 A 2.01 2.01 0 0 0 33.884 15.141 A 1.46 1.46 0 0 0 32.832 15.816 Q 32.376 16.512 32.376 17.832 Q 32.376 20.328 34.296 21.54 A 6.626 6.626 0 0 0 35.41 22.1 Q 36.291 22.446 37.364 22.609 Z M 6.901 22.466 A 13.189 13.189 0 0 0 9.336 22.68 A 16.785 16.785 0 0 0 10.604 22.631 A 20.105 20.105 0 0 0 12.828 22.332 Q 14.664 21.984 16.368 21.24 Q 17.952 20.544 17.952 19.08 Q 17.952 18.859 17.907 18.677 A 1.079 1.079 0 0 0 17.76 18.336 A 0.612 0.612 0 0 0 17.426 18.082 A 0.809 0.809 0 0 0 17.184 18.048 Q 16.944 18.048 16.584 18.192 A 33.616 33.616 0 0 1 16.074 18.401 Q 15.318 18.704 14.617 18.941 A 20.081 20.081 0 0 1 13.044 19.404 Q 11.448 19.8 9.888 19.8 A 11.207 11.207 0 0 1 8.935 19.761 Q 7.964 19.678 7.165 19.419 A 5.097 5.097 0 0 1 5.136 18.228 A 4.831 4.831 0 0 1 4.605 17.614 Q 3.97 16.741 3.71 15.563 A 8.271 8.271 0 0 1 3.528 13.776 A 16.898 16.898 0 0 1 3.529 13.572 Q 3.544 12.371 3.73 11.317 A 9.924 9.924 0 0 1 4.416 9.012 A 10.63 10.63 0 0 1 4.441 8.957 Q 4.82 8.114 5.299 7.445 A 6.279 6.279 0 0 1 6.744 5.976 A 6.302 6.302 0 0 1 7.312 5.612 A 4.922 4.922 0 0 1 9.768 4.944 A 3.651 3.651 0 0 1 10.627 5.036 Q 11.677 5.291 11.977 6.251 A 2.945 2.945 0 0 1 12.096 7.128 A 2.784 2.784 0 0 1 12.095 7.192 Q 12.089 7.471 12.028 7.858 A 10.361 10.361 0 0 1 11.952 8.28 A 17.878 17.878 0 0 0 11.939 8.363 Q 11.877 8.743 11.861 8.951 A 1.654 1.654 0 0 0 11.856 9.072 A 1.544 1.544 0 0 0 11.887 9.387 A 1.008 1.008 0 0 0 12.24 9.984 Q 12.495 10.191 12.877 10.261 A 2.34 2.34 0 0 0 13.296 10.296 A 2.063 2.063 0 0 0 13.316 10.296 Q 13.937 10.29 14.37 9.909 A 1.991 1.991 0 0 0 14.772 9.408 Q 15.111 8.825 15.227 7.994 A 6.776 6.776 0 0 0 15.288 7.056 A 6.267 6.267 0 0 0 15.222 6.126 A 4.468 4.468 0 0 0 13.944 3.54 Q 12.6 2.208 10.008 2.208 Q 7.224 2.208 4.944 3.708 A 9.61 9.61 0 0 0 3.015 5.386 A 11.336 11.336 0 0 0 1.332 7.944 Q 0 10.68 0 14.208 A 10.402 10.402 0 0 0 0.089 15.59 A 8.154 8.154 0 0 0 1.128 18.672 Q 2.256 20.592 4.368 21.636 A 9.744 9.744 0 0 0 6.901 22.466 Z M 111.18 17.398 A 0.534 0.534 0 0 0 110.76 17.208 A 0.753 0.753 0 0 0 110.314 17.356 A 1.143 1.143 0 0 0 110.112 17.544 Q 109.301 18.51 108.726 19.079 A 7.981 7.981 0 0 1 108.312 19.464 Q 107.981 19.748 107.657 19.892 A 1.63 1.63 0 0 1 106.992 20.04 Q 106.622 20.04 106.349 19.716 A 1.623 1.623 0 0 1 106.164 19.44 Q 105.84 18.84 105.744 17.448 Q 107.952 13.656 109.272 10.056 Q 110.056 7.919 110.374 6.103 A 13.553 13.553 0 0 0 110.592 3.768 A 10.361 10.361 0 0 0 110.592 3.694 Q 110.584 2.558 110.325 1.773 A 3.002 3.002 0 0 0 109.908 0.936 A 2.923 2.923 0 0 0 109.706 0.688 A 1.979 1.979 0 0 0 108.192 0 A 2.461 2.461 0 0 0 107.38 0.135 Q 105.844 0.668 104.82 3.3 A 21.065 21.065 0 0 0 104.466 4.282 Q 103.47 7.273 103.08 11.256 Q 101.304 11.448 99.876 12.492 Q 98.448 13.536 97.632 15.18 Q 96.816 16.824 96.816 18.744 Q 96.816 20.496 97.764 21.588 A 3.14 3.14 0 0 0 98.822 22.398 A 3.193 3.193 0 0 0 100.176 22.68 A 4.209 4.209 0 0 0 100.782 22.638 A 3.255 3.255 0 0 0 101.94 22.248 A 2.969 2.969 0 0 0 102.18 22.095 Q 102.628 21.778 103.157 21.193 A 13.048 13.048 0 0 0 103.704 20.544 Q 104.664 22.68 106.488 22.68 A 3.129 3.129 0 0 0 106.688 22.674 Q 107.742 22.606 108.816 21.828 A 10.775 10.775 0 0 0 109.143 21.582 A 11.745 11.745 0 0 0 110.976 19.776 A 1.62 1.62 0 0 0 111.193 19.452 Q 111.324 19.196 111.383 18.872 A 3.248 3.248 0 0 0 111.432 18.288 A 2.419 2.419 0 0 0 111.422 18.06 Q 111.407 17.903 111.37 17.772 A 1.05 1.05 0 0 0 111.252 17.496 A 0.76 0.76 0 0 0 111.18 17.398 Z M 120.006 22.54 A 1.321 1.321 0 0 0 120.624 22.68 A 2.448 2.448 0 0 0 120.861 22.669 Q 121.426 22.614 121.716 22.284 Q 122.062 21.891 122.325 20.775 A 10.624 10.624 0 0 0 122.328 20.76 Q 122.688 19.296 123.276 17.976 A 19.511 19.511 0 0 1 123.573 17.339 Q 124.007 16.452 124.428 15.852 A 6.408 6.408 0 0 1 124.571 15.656 Q 124.896 15.228 125.127 15.101 A 0.374 0.374 0 0 1 125.304 15.048 A 0.349 0.349 0 0 1 125.318 15.048 Q 125.518 15.057 125.558 15.297 A 0.827 0.827 0 0 1 125.568 15.432 Q 125.568 16.008 125.256 17.52 Q 124.92 19.248 124.92 19.92 A 5.081 5.081 0 0 0 124.941 20.393 Q 125.035 21.394 125.544 21.972 A 1.888 1.888 0 0 0 125.869 22.264 Q 126.454 22.68 127.392 22.68 Q 128.904 22.68 130.092 21.864 A 9.516 9.516 0 0 0 131.032 21.126 A 11.511 11.511 0 0 0 132.312 19.776 A 1.62 1.62 0 0 0 132.529 19.452 Q 132.66 19.196 132.719 18.872 A 3.248 3.248 0 0 0 132.768 18.288 A 2.419 2.419 0 0 0 132.758 18.06 Q 132.743 17.903 132.706 17.772 A 1.05 1.05 0 0 0 132.588 17.496 A 0.76 0.76 0 0 0 132.516 17.398 A 0.534 0.534 0 0 0 132.096 17.208 A 0.753 0.753 0 0 0 131.65 17.356 A 1.143 1.143 0 0 0 131.448 17.544 Q 130.655 18.493 130.091 19.063 A 8.97 8.97 0 0 1 129.684 19.452 A 4.455 4.455 0 0 1 129.549 19.568 Q 129.195 19.859 128.895 19.971 A 1.007 1.007 0 0 1 128.544 20.04 A 0.976 0.976 0 0 1 128.513 20.04 Q 127.984 20.023 127.876 19.424 A 1.95 1.95 0 0 1 127.848 19.08 A 2.99 2.99 0 0 1 127.857 18.864 Q 127.898 18.306 128.127 17.166 A 50.221 50.221 0 0 1 128.304 16.32 A 59.23 59.23 0 0 0 128.379 15.969 Q 128.714 14.37 128.801 13.478 A 5.663 5.663 0 0 0 128.832 12.936 A 2.298 2.298 0 0 0 128.766 12.358 Q 128.51 11.376 127.272 11.376 Q 126.48 11.376 125.532 11.928 A 4.555 4.555 0 0 0 124.975 12.314 Q 124.626 12.594 124.272 12.973 A 10.31 10.31 0 0 0 123.6 13.776 A 9.428 9.428 0 0 0 123.205 14.34 Q 122.454 15.495 121.824 17.136 A 24.741 24.741 0 0 1 121.889 16.509 Q 121.965 15.855 122.064 15.36 Q 122.208 14.64 122.448 13.68 Q 122.808 12.336 122.808 11.952 Q 122.808 11.793 122.765 11.683 A 0.37 0.37 0 0 0 122.616 11.496 A 0.531 0.531 0 0 0 122.516 11.448 Q 122.317 11.376 121.944 11.376 A 4.085 4.085 0 0 0 121.51 11.398 Q 121.247 11.426 121.029 11.49 A 1.729 1.729 0 0 0 120.564 11.7 A 1.597 1.597 0 0 0 120.057 12.25 A 2.324 2.324 0 0 0 119.856 12.72 A 18.466 18.466 0 0 0 119.723 13.161 A 19.667 19.667 0 0 0 118.968 18.648 A 20.573 20.573 0 0 0 118.981 19.381 Q 119.036 20.935 119.34 21.72 Q 119.57 22.313 120.006 22.54 Z M 87.294 22.54 A 1.321 1.321 0 0 0 87.912 22.68 A 2.448 2.448 0 0 0 88.149 22.669 Q 88.714 22.614 89.004 22.284 Q 89.35 21.891 89.613 20.775 A 10.624 10.624 0 0 0 89.616 20.76 Q 89.976 19.296 90.552 17.976 Q 90.912 17.151 91.277 16.528 A 7.919 7.919 0 0 1 91.716 15.852 Q 92.141 15.271 92.447 15.11 A 0.471 0.471 0 0 1 92.664 15.048 A 0.349 0.349 0 0 1 92.678 15.048 Q 92.878 15.057 92.918 15.297 A 0.827 0.827 0 0 1 92.928 15.432 Q 92.928 15.561 92.9 15.872 A 21.884 21.884 0 0 1 92.88 16.08 Q 92.808 16.44 92.808 16.8 A 3.127 3.127 0 0 0 92.861 17.386 A 2.156 2.156 0 0 0 93.468 18.552 A 1.974 1.974 0 0 0 93.921 18.883 Q 94.247 19.058 94.665 19.137 A 3.997 3.997 0 0 0 95.4 19.2 Q 96.408 19.2 97.308 18.708 Q 98.208 18.216 98.88 17.52 Q 99.195 17.189 99.303 16.693 A 2.65 2.65 0 0 0 99.36 16.128 A 2.094 2.094 0 0 0 99.355 15.981 Q 99.33 15.626 99.18 15.396 A 0.738 0.738 0 0 0 99.114 15.309 A 0.545 0.545 0 0 0 98.688 15.12 A 0.721 0.721 0 0 0 98.533 15.137 Q 98.279 15.193 98.04 15.432 A 7.509 7.509 0 0 1 97.611 15.831 Q 97.132 16.241 96.745 16.395 A 1.175 1.175 0 0 1 96.312 16.488 A 0.831 0.831 0 0 1 96.288 16.488 Q 95.712 16.471 95.712 15.648 A 1.351 1.351 0 0 1 95.721 15.516 Q 95.752 15.207 95.904 14.448 Q 96.08 13.473 96.113 13.084 A 1.82 1.82 0 0 0 96.12 12.936 A 2.298 2.298 0 0 0 96.054 12.358 Q 95.798 11.376 94.56 11.376 Q 93.768 11.376 92.82 11.928 A 4.555 4.555 0 0 0 92.263 12.314 Q 91.914 12.594 91.56 12.973 A 10.31 10.31 0 0 0 90.888 13.776 A 9.428 9.428 0 0 0 90.493 14.34 Q 89.742 15.495 89.112 17.136 A 24.741 24.741 0 0 1 89.177 16.509 Q 89.253 15.855 89.352 15.36 Q 89.496 14.64 89.736 13.68 Q 90.096 12.336 90.096 11.952 Q 90.096 11.793 90.053 11.683 A 0.37 0.37 0 0 0 89.904 11.496 A 0.531 0.531 0 0 0 89.804 11.448 Q 89.605 11.376 89.232 11.376 A 4.085 4.085 0 0 0 88.798 11.398 Q 88.535 11.426 88.317 11.49 A 1.729 1.729 0 0 0 87.852 11.7 A 1.597 1.597 0 0 0 87.345 12.25 A 2.324 2.324 0 0 0 87.144 12.72 A 18.466 18.466 0 0 0 87.011 13.161 A 19.667 19.667 0 0 0 86.256 18.648 A 20.573 20.573 0 0 0 86.269 19.381 Q 86.324 20.935 86.628 21.72 Q 86.858 22.313 87.294 22.54 Z M 120.612 17.398 A 0.534 0.534 0 0 0 120.192 17.208 A 0.753 0.753 0 0 0 119.746 17.356 A 1.143 1.143 0 0 0 119.544 17.544 Q 118.536 18.768 117.156 19.524 Q 116.337 19.973 115.623 20.155 A 3.747 3.747 0 0 1 114.696 20.28 A 4.773 4.773 0 0 1 114.462 20.274 Q 114.013 20.252 113.648 20.144 A 1.981 1.981 0 0 1 112.416 19.176 Q 115.248 18.48 116.436 17.292 Q 117.624 16.104 117.624 14.448 A 4.003 4.003 0 0 0 117.55 13.659 A 2.75 2.75 0 0 0 116.784 12.204 A 2.768 2.768 0 0 0 115.519 11.492 A 3.805 3.805 0 0 0 114.552 11.376 Q 112.992 11.376 111.756 12.216 A 5.526 5.526 0 0 0 111.102 12.737 A 5.854 5.854 0 0 0 109.824 14.484 Q 109.128 15.912 109.128 17.568 A 6.695 6.695 0 0 0 109.268 18.971 A 4.528 4.528 0 0 0 110.52 21.312 A 4.273 4.273 0 0 0 111.113 21.798 Q 111.867 22.311 112.866 22.526 A 7.462 7.462 0 0 0 114.432 22.68 Q 116.28 22.68 117.9 21.768 Q 118.773 21.276 119.434 20.736 A 6.959 6.959 0 0 0 120.408 19.776 A 1.62 1.62 0 0 0 120.625 19.452 Q 120.756 19.196 120.815 18.872 A 3.248 3.248 0 0 0 120.864 18.288 A 2.419 2.419 0 0 0 120.854 18.06 Q 120.839 17.903 120.802 17.772 A 1.05 1.05 0 0 0 120.684 17.496 A 0.76 0.76 0 0 0 120.612 17.398 Z M 76.751 22.495 A 3.307 3.307 0 0 0 77.88 22.68 A 3.245 3.245 0 0 0 80.228 21.682 A 5.436 5.436 0 0 0 81.024 20.664 Q 81.36 21.6 82.02 22.14 A 2.808 2.808 0 0 0 82.124 22.221 A 2.213 2.213 0 0 0 83.472 22.68 A 2.64 2.64 0 0 0 83.963 22.633 Q 84.765 22.482 85.608 21.84 Q 86.712 21 87.696 19.776 A 1.62 1.62 0 0 0 87.913 19.452 Q 88.044 19.196 88.103 18.872 A 3.248 3.248 0 0 0 88.152 18.288 A 2.419 2.419 0 0 0 88.142 18.06 Q 88.127 17.903 88.09 17.772 A 1.05 1.05 0 0 0 87.972 17.496 A 0.76 0.76 0 0 0 87.9 17.398 A 0.534 0.534 0 0 0 87.48 17.208 A 0.753 0.753 0 0 0 87.034 17.356 A 1.143 1.143 0 0 0 86.832 17.544 Q 85.728 18.864 85.08 19.452 A 4.343 4.343 0 0 1 84.891 19.615 Q 84.567 19.876 84.296 19.977 A 0.92 0.92 0 0 1 83.976 20.04 A 0.73 0.73 0 0 1 83.923 20.038 A 0.574 0.574 0 0 1 83.508 19.824 Q 83.393 19.686 83.351 19.488 A 1.169 1.169 0 0 1 83.328 19.248 A 4.576 4.576 0 0 1 83.329 19.171 Q 83.343 18.348 83.645 16.646 A 59.016 59.016 0 0 1 83.88 15.408 Q 84.173 13.868 84.228 13.246 A 2.798 2.798 0 0 0 84.24 13.008 A 1.164 1.164 0 0 0 84.24 12.974 Q 84.221 12.329 83.479 12.2 A 2.439 2.439 0 0 0 83.064 12.168 A 6.234 6.234 0 0 0 82.91 12.17 A 5.547 5.547 0 0 0 82.008 12.264 Q 81.888 11.736 81.708 11.532 A 0.424 0.424 0 0 0 81.617 11.455 Q 81.417 11.328 81 11.328 A 5.06 5.06 0 0 0 79.512 11.55 A 5.763 5.763 0 0 0 77.868 12.372 A 7.264 7.264 0 0 0 77.084 13.012 A 7.803 7.803 0 0 0 75.504 15.132 Q 74.616 16.848 74.616 18.768 A 6.815 6.815 0 0 0 74.617 18.854 Q 74.625 19.496 74.754 20.046 A 3.768 3.768 0 0 0 75.504 21.6 A 2.846 2.846 0 0 0 76.751 22.495 Z M 107.928 2.352 A 0.36 0.36 0 0 0 107.682 2.47 Q 107.429 2.713 107.175 3.457 A 10.019 10.019 0 0 0 107.016 3.972 A 18.707 18.707 0 0 0 106.718 5.203 Q 106.584 5.847 106.463 6.599 A 45.448 45.448 0 0 0 106.236 8.208 A 73.204 73.204 0 0 0 105.851 12.267 A 82.7 82.7 0 0 0 105.768 13.68 Q 108.134 8.527 108.417 5.158 A 10.558 10.558 0 0 0 108.456 4.272 Q 108.456 3.36 108.3 2.856 Q 108.16 2.404 107.972 2.357 A 0.182 0.182 0 0 0 107.928 2.352 Z M 80.448 17.976 L 81.336 13.56 Q 80.328 13.584 79.476 14.316 A 4.73 4.73 0 0 0 78.488 15.511 A 6.063 6.063 0 0 0 78.12 16.248 Q 77.616 17.448 77.616 18.792 Q 77.616 19.531 77.912 19.891 A 0.927 0.927 0 0 0 77.916 19.896 A 0.981 0.981 0 0 0 78.585 20.247 A 1.404 1.404 0 0 0 78.744 20.256 A 0.966 0.966 0 0 0 79.252 20.105 Q 79.508 19.949 79.752 19.632 A 3.206 3.206 0 0 0 80.144 18.958 Q 80.286 18.633 80.386 18.243 A 6.091 6.091 0 0 0 80.448 17.976 Z M 101.016 20.256 A 1.221 1.221 0 0 0 101.529 20.138 Q 101.698 20.061 101.866 19.933 A 2.307 2.307 0 0 0 101.928 19.884 A 3.022 3.022 0 0 0 102.203 19.626 Q 102.484 19.33 102.834 18.851 A 15.734 15.734 0 0 0 103.08 18.504 Q 102.84 17.208 102.84 15.6 Q 102.84 15.024 102.888 13.728 A 3.749 3.749 0 0 0 101.204 14.821 A 5.137 5.137 0 0 0 100.692 15.492 Q 99.816 16.848 99.816 18.504 A 3.786 3.786 0 0 0 99.862 19.122 Q 100.044 20.217 100.95 20.255 A 1.577 1.577 0 0 0 101.016 20.256 Z M 65.496 31.152 Q 66.12 31.152 66.864 29.736 Q 67.48 28.564 68.031 26.206 A 40.546 40.546 0 0 0 68.256 25.176 A 21.79 21.79 0 0 0 67.216 26.122 Q 66.198 27.114 65.646 27.968 A 6.477 6.477 0 0 0 65.628 27.996 Q 65.109 28.809 64.925 29.497 A 2.784 2.784 0 0 0 64.824 30.216 Q 64.824 31.135 65.472 31.152 A 0.939 0.939 0 0 0 65.496 31.152 Z M 112.032 17.256 L 112.032 17.304 A 7.496 7.496 0 0 0 113.001 17.008 Q 113.492 16.819 113.881 16.572 A 3.789 3.789 0 0 0 114.264 16.296 A 2.602 2.602 0 0 0 114.729 15.809 A 1.8 1.8 0 0 0 115.08 14.736 A 1.339 1.339 0 0 0 115.045 14.42 A 0.931 0.931 0 0 0 114.828 14.004 Q 114.576 13.728 114.144 13.728 A 1.46 1.46 0 0 0 113.142 14.131 Q 112.874 14.373 112.644 14.76 A 4.26 4.26 0 0 0 112.133 16.138 A 5.899 5.899 0 0 0 112.032 17.256 Z" vector-effect="non-scaling-stroke"/></g></svg>